<svg width="19" height="17" viewBox="0 0 19 17" fill="none" xmlns="http://www.w3.org/2000/svg">
<path d="M9.48308 2.91296C9.48308 2.91296 9.1359 3.2015 8.77671 3.71549C8.34396 4.33475 7.89379 5.28126 8.01234 6.44471" fill="#FFC6C9"/>
<path d="M9.48308 2.91296C9.48308 2.91296 9.1359 3.2015 8.77671 3.71549M8.01234 6.44471C7.89379 5.28126 8.34396 4.33475 8.77671 3.71549M8.77671 3.71549C9.19342 3.12125 9.71074 2.66124 10.2398 2.31127M10.2398 2.31127C11.1714 1.6951 12.1394 1.42 12.659 1.35388C13.2665 1.32972 13.8726 1.42907 14.4407 1.64587C15.0087 1.86268 15.5268 2.19243 15.9638 2.61522C17.8532 4.46686 18.1307 7.95827 16.4228 10.0193C14.715 12.0803 11.9149 12.9936 10.1919 15.0899C9.91275 15.4234 9.67473 15.7893 9.48301 16.1797C9.29217 15.7894 9.05506 15.4235 8.77671 15.0899C7.0512 12.9936 4.26858 12.1005 2.54306 10.0193C0.817554 7.93809 1.11279 4.46939 3.00227 2.61522C4.01452 1.40435 6.32969 -0.16219 10.2398 2.31127Z" stroke="#EC888D" stroke-linecap="round" stroke-linejoin="round"/>
</svg>
