<svg width="18" height="15" viewBox="0 0 18 15" fill="none" xmlns="http://www.w3.org/2000/svg">
<g filter="url(#filter0_d_15009_7549)">
<path d="M5.53308 5.19741H6.97957M5.53308 6.71699H10.8151M12.933 10.3378L12.1717 8.7634C12.4664 8.32574 12.6847 7.84129 12.8173 7.33062C13.0755 6.36998 13.0597 5.35626 12.7716 4.40415C11.7302 0.987379 8.17636 1.24775 8.17636 1.24775C8.17636 1.24775 4.57078 0.982811 3.55823 4.48028C3.28267 5.43838 3.28267 6.45475 3.55823 7.41285C4.57078 10.9149 8.17636 10.6469 8.17636 10.6469C9.15049 10.6776 10.1132 10.4305 10.9521 9.93432L12.5326 10.7337C12.5881 10.7572 12.6494 10.7637 12.7087 10.7523C12.7679 10.7409 12.8224 10.7122 12.8653 10.6698C12.9082 10.6274 12.9376 10.5732 12.9496 10.5141C12.9617 10.455 12.9559 10.3936 12.933 10.3378Z" stroke="#FFFDF9" stroke-width="0.761311" stroke-linecap="round" stroke-linejoin="round" shape-rendering="crispEdges"/>
</g>
<defs>
<filter id="filter0_d_15009_7549" x="-1.0293" y="0.862305" width="18.4102" height="18.2764" filterUnits="userSpaceOnUse" color-interpolation-filters="sRGB">
<feFlood flood-opacity="0" result="BackgroundImageFix"/>
<feColorMatrix in="SourceAlpha" type="matrix" values="0 0 0 0 0 0 0 0 0 0 0 0 0 0 0 0 0 0 127 0" result="hardAlpha"/>
<feOffset dy="4"/>
<feGaussianBlur stdDeviation="2"/>
<feComposite in2="hardAlpha" operator="out"/>
<feColorMatrix type="matrix" values="0 0 0 0 0 0 0 0 0 0 0 0 0 0 0 0 0 0 0.25 0"/>
<feBlend mode="normal" in2="BackgroundImageFix" result="effect1_dropShadow_15009_7549"/>
<feBlend mode="normal" in="SourceGraphic" in2="effect1_dropShadow_15009_7549" result="shape"/>
</filter>
</defs>
</svg>
